<svg width="32" height="32" viewBox="0 0 32 32" fill="none" xmlns="http://www.w3.org/2000/svg">
<path d="M7.57585 16C7.57585 14.4242 7.95969 12.9899 8.72736 11.697C9.49502 10.404 10.5253 9.37374 11.8182 8.60606C13.1111 7.83838 14.5455 7.45454 16.1212 7.45454C17.4949 7.45454 18.7676 7.75758 19.9394 8.36364C21.1111 8.9697 22.0757 9.79293 22.8333 10.8333C23.5908 11.8737 24.0454 13.0455 24.1969 14.3485H19.6969C19.5454 13.5909 19.1262 12.9747 18.4394 12.5C17.7626 12.0152 16.9899 11.7727 16.1212 11.7727C15.3434 11.7727 14.6313 11.9596 13.9849 12.3333C13.3485 12.7071 12.8384 13.2172 12.4546 13.8636C12.0708 14.5 11.8788 15.2071 11.8788 15.9848C11.8788 16.7626 12.0708 17.4747 12.4546 18.1212C12.8384 18.7576 13.3485 19.2677 13.9849 19.6515C14.6313 20.0354 15.3434 20.2273 16.1212 20.2273C16.9899 20.2273 17.7424 19.9899 18.3788 19.5152C19.0151 19.0303 19.4141 18.4091 19.5757 17.6515H24.0757C23.9242 18.9545 23.4797 20.1263 22.7423 21.1667C22.005 22.2071 21.0605 23.0303 19.909 23.6364C18.7575 24.2424 17.4949 24.5455 16.1212 24.5455C14.5455 24.5455 13.1111 24.1616 11.8182 23.3939C10.5253 22.6263 9.49502 21.596 8.72736 20.303C7.95969 19.0101 7.57585 17.5758 7.57585 16ZM16 32C13.798 32 11.7273 31.5859 9.78795 30.7576C7.85868 29.9293 6.15668 28.7828 4.68195 27.3182C3.21732 25.8434 2.06582 24.1414 1.22744 22.2121C0.399168 20.2828 -0.00991844 18.2121 0.00018255 16C0.0102833 13.7879 0.42947 11.7172 1.25774 9.78788C2.09612 7.85858 3.24762 6.16162 4.71225 4.69697C6.17688 3.22222 7.87383 2.07071 9.8031 1.24242C11.7324 0.414141 13.798 0 16 0C18.2121 0 20.2828 0.414141 22.2121 1.24242C24.1514 2.07071 25.8484 3.22222 27.3029 4.69697C28.7675 6.16162 29.914 7.85858 30.7423 9.78788C31.5705 11.7172 31.9897 13.7879 31.9998 16C32.0099 18.2121 31.6008 20.2828 30.7726 22.2121C29.9443 24.1414 28.7978 25.8434 27.3332 27.3182C25.8686 28.7828 24.1666 29.9293 22.2272 30.7576C20.2878 31.5859 18.2121 32 16 32ZM16 26.9545C17.5252 26.9545 18.9495 26.6717 20.2727 26.1061C21.606 25.5404 22.7727 24.7576 23.7726 23.7576C24.7726 22.7475 25.5555 21.5859 26.1211 20.2727C26.6868 18.9495 26.9645 17.5303 26.9544 16.0152C26.9544 14.4899 26.6665 13.0657 26.0908 11.7424C25.5251 10.4091 24.7423 9.24242 23.7423 8.24242C22.7423 7.24242 21.5807 6.4596 20.2575 5.89394C18.9343 5.32828 17.5151 5.04545 16 5.04545C14.495 5.04545 13.0808 5.32828 11.7576 5.89394C10.4445 6.4596 9.28291 7.24748 8.27282 8.25758C7.27283 9.25758 6.48496 10.4242 5.90921 11.7576C5.33346 13.0808 5.04558 14.5 5.04558 16.0152C5.03548 17.5202 5.31325 18.9343 5.8789 20.2576C6.45465 21.5707 7.24253 22.7323 8.24251 23.7424C9.2526 24.7424 10.4193 25.5303 11.7425 26.1061C13.0657 26.6717 14.4849 26.9545 16 26.9545Z" fill="#FF4F00"/>
</svg>
