<svg width="32" height="32" viewBox="0 0 32 32" fill="none" xmlns="http://www.w3.org/2000/svg">
<path d="M7.42434 16C7.42434 14.404 7.81323 12.9495 8.591 11.6364C9.37886 10.3131 10.4294 9.26263 11.7425 8.48485C13.0657 7.69697 14.5253 7.30303 16.1212 7.30303C17.5252 7.30303 18.8182 7.60606 20 8.21212C21.1818 8.81818 22.1565 9.64646 22.9242 10.697C23.7019 11.7475 24.1767 12.9343 24.3484 14.2576H20.1212C19.9495 13.399 19.4848 12.702 18.7272 12.1667C17.9697 11.6212 17.101 11.3485 16.1212 11.3485C15.2727 11.3485 14.495 11.5606 13.7879 11.9848C13.0909 12.399 12.5303 12.9596 12.1061 13.6667C11.692 14.3636 11.4849 15.1364 11.4849 15.9848C11.4849 16.8434 11.692 17.6263 12.1061 18.3333C12.5303 19.0303 13.0909 19.5909 13.7879 20.0152C14.495 20.4394 15.2727 20.6515 16.1212 20.6515C17.101 20.6515 17.9394 20.3838 18.6363 19.8485C19.3333 19.303 19.7676 18.601 19.9394 17.7424H24.1666C23.9949 19.0657 23.5353 20.2525 22.7878 21.303C22.0504 22.3535 21.106 23.1818 19.9545 23.7879C18.803 24.3939 17.5252 24.697 16.1212 24.697C14.5253 24.697 13.0657 24.3081 11.7425 23.5303C10.4294 22.7424 9.37886 21.6919 8.591 20.3788C7.81323 19.0556 7.42434 17.596 7.42434 16ZM16 32C13.798 32 11.7273 31.5859 9.78795 30.7576C7.85868 29.9293 6.15668 28.7828 4.68195 27.3182C3.21732 25.8434 2.06582 24.1414 1.22744 22.2121C0.399168 20.2828 -0.00991844 18.2121 0.00018255 16C0.0102833 13.7879 0.42947 11.7172 1.25774 9.78788C2.09612 7.85858 3.24762 6.16162 4.71225 4.69697C6.17688 3.22222 7.87383 2.07071 9.8031 1.24242C11.7324 0.414141 13.798 0 16 0C18.2121 0 20.2828 0.414141 22.2121 1.24242C24.1514 2.07071 25.8484 3.22222 27.3029 4.69697C28.7675 6.16162 29.914 7.85858 30.7423 9.78788C31.5705 11.7172 31.9897 13.7879 31.9998 16C32.0099 18.2121 31.6008 20.2828 30.7726 22.2121C29.9443 24.1414 28.7978 25.8434 27.3332 27.3182C25.8686 28.7828 24.1666 29.9293 22.2272 30.7576C20.2878 31.5859 18.2121 32 16 32ZM16 27.4697C17.5858 27.4697 19.0757 27.1717 20.4696 26.5758C21.8636 25.9798 23.0807 25.1616 24.1211 24.1212C25.1716 23.0707 25.9898 21.8535 26.5756 20.4697C27.1716 19.0758 27.4696 17.5909 27.4696 16.0152C27.4595 14.4293 27.1564 12.9394 26.5605 11.5455C25.9746 10.1515 25.1565 8.93434 24.106 7.89394C23.0555 6.84343 21.8383 6.0202 20.4545 5.42424C19.0707 4.82828 17.5858 4.5303 16 4.5303C14.4243 4.5303 12.9445 4.82828 11.5607 5.42424C10.1768 6.0202 8.95968 6.84343 7.90918 7.89394C6.85869 8.94444 6.03547 10.1667 5.43952 11.5606C4.84356 12.9444 4.54053 14.4293 4.53043 16.0152C4.53043 17.5808 4.82336 19.0606 5.40921 20.4545C6.00517 21.8384 6.82839 23.0556 7.87888 24.1061C8.92937 25.1566 10.1465 25.9798 11.5304 26.5758C12.9243 27.1717 14.4142 27.4697 16 27.4697Z" fill="#00f"/>
</svg>
